<svg width="32" height="32" viewBox="0 0 32 32" fill="none" xmlns="http://www.w3.org/2000/svg">
<g clip-path="url(#clip0_12626_11156)">
<path d="M31.8435 15.6253L23.3101 7.09192C23.1021 6.88392 22.764 6.88392 22.556 7.09192C22.348 7.29992 22.348 7.63805 22.556 7.84605L30.7117 16.0018L22.556 24.1575C22.348 24.3655 22.348 24.7037 22.556 24.9117C22.6605 25.0151 22.7971 25.0674 22.9336 25.0674C23.0701 25.0674 23.2067 25.0162 23.3101 24.9127L31.8435 16.3794C32.0515 16.1714 32.0515 15.8333 31.8435 15.6253ZM9.44347 7.09085C9.23547 6.88285 8.89733 6.88285 8.68933 7.09085L0.156 15.6242C-0.052 15.8322 -0.052 16.1703 0.156 16.3783L8.68933 24.9117C8.79387 25.0151 8.92933 25.0674 9.06587 25.0674C9.2024 25.0674 9.33893 25.0162 9.4424 24.9106C9.6504 24.7026 9.6504 24.3645 9.4424 24.1565L1.28773 16.0007L9.44347 7.84499C9.65147 7.63699 9.65147 7.29885 9.44347 7.09085ZM22.06 0.570322C21.788 0.464722 21.4776 0.598055 21.3688 0.872188L9.63547 30.7389C9.52773 31.013 9.6632 31.3223 9.93734 31.4301C10.0024 31.4557 10.0685 31.4674 10.1325 31.4674C10.3448 31.4674 10.5464 31.3394 10.6285 31.1282L22.3619 1.26152C22.4707 0.987388 22.3352 0.678055 22.06 0.570322Z" fill="#CAC6B9"/>
</g>
<defs>
<clipPath id="clip0_12626_11156">
<rect width="32" height="32" fill="white"/>
</clipPath>
</defs>
</svg>
