<svg width="24" height="24" viewBox="0 0 24 24" fill="none" xmlns="http://www.w3.org/2000/svg">
<g clip-path="url(#clip0_12626_11189)">
<path d="M11.9938 12.4004C11.7537 12.4004 11.5938 12.2404 11.5938 12.0004V8.80039C11.5938 8.56039 11.7537 8.40039 11.9938 8.40039C12.2338 8.40039 12.3938 8.56039 12.3938 8.80039V12.0004C12.3938 12.2404 12.2338 12.4004 11.9938 12.4004Z" fill="#CAC6B9"/>
<path d="M19.1984 15.6006C18.9584 15.6006 18.7984 15.4406 18.7984 15.2006V14.0006C18.7984 13.1206 18.0784 12.4006 17.1984 12.4006H6.79844C5.91844 12.4006 5.19844 13.1206 5.19844 14.0006V15.2006C5.19844 15.4406 5.03844 15.6006 4.79844 15.6006C4.55844 15.6006 4.39844 15.4406 4.39844 15.2006V14.0006C4.39844 12.6406 5.43844 11.6006 6.79844 11.6006H17.1984C18.5584 11.6006 19.5984 12.6406 19.5984 14.0006V15.2006C19.5984 15.4406 19.4384 15.6006 19.1984 15.6006Z" fill="#CAC6B9"/>
<path d="M11.9938 9.20039C9.59375 9.20039 7.59375 7.20039 7.59375 4.80039C7.59375 2.40039 9.59375 0.400391 11.9938 0.400391C14.3938 0.400391 16.3938 2.40039 16.3938 4.80039C16.3938 7.20039 14.3938 9.20039 11.9938 9.20039ZM11.9938 1.20039C9.99375 1.20039 8.39375 2.80039 8.39375 4.80039C8.39375 6.80039 9.99375 8.40039 11.9938 8.40039C13.9938 8.40039 15.5938 6.80039 15.5938 4.80039C15.5938 2.80039 13.9938 1.20039 11.9938 1.20039Z" fill="#CAC6B9"/>
<path d="M4.79844 23.6008C2.39844 23.6008 0.398438 21.6008 0.398438 19.2008C0.398438 16.8008 2.39844 14.8008 4.79844 14.8008C7.19844 14.8008 9.19844 16.8008 9.19844 19.2008C9.19844 21.6008 7.19844 23.6008 4.79844 23.6008ZM4.79844 15.6008C2.79844 15.6008 1.19844 17.2008 1.19844 19.2008C1.19844 21.2008 2.79844 22.8008 4.79844 22.8008C6.79844 22.8008 8.39844 21.2008 8.39844 19.2008C8.39844 17.2008 6.79844 15.6008 4.79844 15.6008Z" fill="#CAC6B9"/>
<path d="M19.1969 23.6008C16.7969 23.6008 14.7969 21.6008 14.7969 19.2008C14.7969 16.8008 16.7969 14.8008 19.1969 14.8008C21.5969 14.8008 23.5969 16.8008 23.5969 19.2008C23.5969 21.6008 21.5969 23.6008 19.1969 23.6008ZM19.1969 15.6008C17.1969 15.6008 15.5969 17.2008 15.5969 19.2008C15.5969 21.2008 17.1969 22.8008 19.1969 22.8008C21.1969 22.8008 22.7969 21.2008 22.7969 19.2008C22.7969 17.2008 21.1969 15.6008 19.1969 15.6008Z" fill="#CAC6B9"/>
</g>
<defs>
<clipPath id="clip0_12626_11189">
<rect width="24" height="24" fill="white"/>
</clipPath>
</defs>
</svg>
