<svg width="32" height="32" viewBox="0 0 32 32" fill="none" xmlns="http://www.w3.org/2000/svg">
<path d="M22.0348 26.8194L22.0428 26.8147L22.0426 26.8145L22.0348 26.8194Z" fill="#CAC6B9"/>
<path d="M22.0419 26.8117L22.0915 26.7869L22.0905 26.7852L22.0419 26.8142V26.8117Z" fill="#CAC6B9"/>
<path d="M22.0377 26.8204L22.0362 26.8211L22.0399 26.8186L22.0377 26.8204Z" fill="#CAC6B9"/>
<path d="M28.0339 15.6493L28.022 15.4522L28.0156 15.3538L27.9965 15.1223L27.9915 15.0623L27.9643 14.8037L27.9618 14.7829L27.9605 14.773L27.9234 14.4944C27.9231 14.4919 27.9229 14.4882 27.9221 14.4857C27.8379 13.9013 27.7116 13.3237 27.5443 12.7574L27.5409 12.7465L27.4596 12.483L27.4484 12.4483L27.3691 12.2118L27.3468 12.1478L27.2724 11.9438L27.2352 11.8471L27.1695 11.6791L27.1155 11.5467L27.0609 11.4163L26.9881 11.2502L26.9459 11.1565L26.8535 10.9589L26.8247 10.8989L26.7136 10.6744L26.6975 10.6434L26.5686 10.3955C26.5669 10.393 26.5657 10.3895 26.5637 10.3868C26.3505 9.99513 26.117 9.61635 25.8641 9.25195L20.4688 14.6478C20.5904 15.0076 20.6714 15.3798 20.7102 15.7576H28.0379L28.0339 15.6493Z" fill="#CAC6B9"/>
<path d="M20.7338 16.2542L20.7219 16.502L20.7082 16.7499C20.614 17.7018 20.2464 18.6339 19.6061 19.4123C19.5565 19.4758 19.4953 19.5353 19.4395 19.5965C19.3837 19.6577 19.3324 19.7214 19.2734 19.7804L24.442 24.949C24.5007 24.8902 24.556 24.8295 24.613 24.7697L24.7841 24.5905C25.1666 24.1765 25.5161 23.7427 25.8312 23.2926L25.8679 23.2395L25.9814 23.0727L26.0793 22.9227L26.1289 22.8496C27.3143 20.9879 27.9484 18.8783 28.0339 16.7497L28.0406 16.5018L28.0448 16.2539L20.7338 16.2542Z" fill="#CAC6B9"/>
<path d="M18.8993 20.1104L18.7266 20.2442L18.7395 20.2658L22.5079 26.5213L23.0235 26.1664C23.3879 25.8974 23.7412 25.6061 24.0813 25.292L18.9197 20.1309L18.8993 20.1104Z" fill="#CAC6B9"/>
<path d="M21.9611 26.573L18.3156 20.5244L18.0989 20.6451L17.8768 20.7567C17.2082 21.0746 16.4773 21.24 15.737 21.2408C15.255 21.2408 14.7755 21.1708 14.3136 21.0331L14.0793 20.9508L13.8453 20.8677L11.0625 27.6265L11.0828 27.634L11.1041 27.6421L11.1098 27.6446L11.6441 27.8491C12.4571 28.1361 13.2979 28.3373 14.1527 28.4495C14.1862 28.4536 14.2195 28.4581 14.2529 28.4629L14.5558 28.4959L14.6049 28.5001L14.8478 28.5204L14.9304 28.5254L15.1431 28.5378L15.2734 28.5427L15.4425 28.5487L15.7444 28.5524C16.4283 28.5524 17.1109 28.4955 17.7853 28.3823L17.8195 28.3774L18.0337 28.3385L18.1577 28.3149L18.2829 28.2886L18.4916 28.2428L18.5293 28.2341C19.5552 27.9948 20.5463 27.6252 21.4784 27.1345L21.6596 27.0351L22.0273 26.8278L22.0213 26.8105L22.0305 26.8261L22.0424 26.8191L22.0907 26.7901L21.9611 26.573Z" fill="#CAC6B9"/>
<path d="M12.5872 20.113L7.40625 25.2915L7.48632 25.3654L7.70769 25.5617L7.88369 25.7109L7.93129 25.7506L8.13257 25.9127L8.1586 25.9333L8.38022 26.1034C8.38321 26.1052 8.38603 26.1072 8.38865 26.1096L9.35419 26.7623L9.38889 26.7833L9.57902 26.8956L9.69553 26.9621L9.80609 27.024L10.0079 27.1331L10.0359 27.148L10.6068 27.4251L13.3948 20.6527C13.1117 20.5015 12.84 20.322 12.5842 20.1123L12.5872 20.113Z" fill="#CAC6B9"/>
<path d="M12.0566 19.5984L11.8955 19.4087L11.7616 19.236L11.6183 19.0332L11.4845 18.8242L5.21875 22.5984L5.54151 23.1053L5.56753 23.1435L5.56902 23.146L5.90566 23.6204L5.9131 23.6304L5.92053 23.6403L6.07274 23.8386L6.25543 24.0654L6.2946 24.1125L6.44433 24.2892L6.51027 24.3641L6.64016 24.5128L6.71379 24.5927L6.74725 24.6289L6.84641 24.733L6.88607 24.7736L7.0596 24.9511L12.2281 19.7826L12.0588 19.6016L12.0566 19.5984Z" fill="#CAC6B9"/>
<path d="M10.7876 16.7471H3.46094L3.46515 16.8544L3.47755 17.0609L3.483 17.1492L3.50283 17.3876L3.50779 17.4409L3.5363 17.7049C3.53683 17.7135 3.53773 17.722 3.53902 17.7305L3.57621 18.014C3.66099 18.6016 3.78692 19.1801 3.95548 19.7488L3.95796 19.7562L4.04547 20.0388L4.05042 20.0544L4.13099 20.2944L4.15231 20.3549L4.22767 20.5624L4.26312 20.6561L4.33005 20.8296L4.38285 20.9585L4.43887 21.0924L4.51324 21.2555L4.55662 21.3546L4.64784 21.5497L4.67809 21.6122L4.7879 21.8341L4.80526 21.868L4.93912 22.1221L4.96763 22.1717L11.2455 18.3832C10.9986 17.8626 10.8449 17.3093 10.7879 16.7471H10.7876ZM3.80699 20.109L3.80898 20.1157L4.04547 20.0413L3.80699 20.109Z" fill="#CAC6B9"/>
<path d="M7.05524 7.55859L6.71216 7.9168C6.3309 8.32954 5.98237 8.75963 5.66804 9.21079L5.62292 9.27525L5.51807 9.43018L5.41147 9.5928L5.3728 9.65229C4.20782 11.4826 3.54916 13.5892 3.46403 15.7571L3.45734 16.005L3.45312 16.2529H10.763L10.7749 16.005L10.7885 15.7571C10.8844 14.7801 11.2681 13.8536 11.8909 13.0948C11.9405 13.0313 12.0017 12.9718 12.0575 12.9106C12.1132 12.8494 12.1645 12.7856 12.2235 12.7266L7.05524 7.55859Z" fill="#CAC6B9"/>
<path d="M12.5879 12.3968L12.7607 12.2629L12.7478 12.2414L8.97962 5.98828L8.46277 6.34425C8.09836 6.61247 7.74561 6.90375 7.40625 7.21733L12.5679 12.3765L12.5879 12.3968Z" fill="#CAC6B9"/>
<path d="M15.4981 3.96225L15.2502 3.96721C14.7331 3.98803 14.217 4.04083 13.7051 4.1266L13.6714 4.1323L13.4569 4.17122L13.333 4.19452L13.2071 4.2208L12.9988 4.26641L12.9609 4.27484C11.9349 4.51443 10.9437 4.88414 10.0115 5.37499L9.39918 5.72055L9.39992 5.72179L13.1728 11.986L13.3895 11.8653C13.4625 11.8262 13.5365 11.7889 13.6114 11.7535C14.1264 11.5078 14.68 11.3527 15.2477 11.2949L15.4956 11.2751L15.7435 11.2666L15.7437 3.95704C15.6609 3.9568 15.5784 3.96027 15.4958 3.962L15.4981 3.96225Z" fill="#CAC6B9"/>
<path d="M22.13 5.74372L22.0997 5.72562L21.9056 5.61035L21.7924 5.5459L21.6783 5.48244L21.48 5.37535L21.4488 5.35899C21.0199 5.13489 20.5799 4.93757 20.1305 4.76405L20.0958 4.75066L19.7983 4.64332C19.0001 4.36445 18.1741 4.16886 17.3353 4.05879L17.2324 4.04491L17.1295 4.03351L16.9312 4.01194L16.8757 4.00699L16.6394 3.98715L16.342 3.96906L16.2344 3.96484V11.2925C16.6104 11.3315 16.983 11.4115 17.3444 11.5342L22.7391 6.14431C22.5395 6.00485 22.3358 5.87142 22.1283 5.74421L22.13 5.74372Z" fill="#CAC6B9"/>
<path d="M30.2195 1.78624C28.8821 0.448859 26.7138 0.448859 25.3767 1.78624C24.3098 2.85292 24.0966 4.44761 24.7322 5.72822L17.2728 13.1878C15.9922 12.5527 14.3973 12.7656 13.3306 13.8323C12.6887 14.4747 12.3281 15.3457 12.3281 16.2538C12.3281 17.162 12.6887 18.033 13.3306 18.6754C13.9731 19.3173 14.8441 19.6779 15.7523 19.6779C16.6605 19.6778 17.5316 19.3171 18.1739 18.6751C19.2406 17.6084 19.4536 16.0138 18.8185 14.7329L26.2775 7.27382C27.5584 7.90892 29.1531 7.69598 30.2195 6.6293C31.5571 5.29242 31.5571 3.12411 30.2198 1.78673L30.2195 1.78624Z" fill="#CAC6B9"/>
</svg>
