<svg width="32" height="32" viewBox="0 0 32 32" fill="none" xmlns="http://www.w3.org/2000/svg">
<path d="M27.7313 30H4.26458C2.23792 30 0.53125 28.2933 0.53125 26.2667V5.73333C0.53125 3.70667 2.23792 2 4.26458 2H27.7313C29.7579 2 31.4646 3.70667 31.4646 5.73333V26.2667C31.4646 28.2933 29.7579 30 27.7313 30ZM4.26458 3.06667C2.77125 3.06667 1.59792 4.24 1.59792 5.73333V26.2667C1.59792 27.76 2.77125 28.9333 4.26458 28.9333H27.7313C29.2246 28.9333 30.3979 27.76 30.3979 26.2667V5.73333C30.3979 4.24 29.2246 3.06667 27.7313 3.06667H4.26458Z" fill="#CAC6B9"/>
<path d="M30.9313 7.33327H1.06458C0.744583 7.33327 0.53125 7.11993 0.53125 6.79993C0.53125 6.47993 0.744583 6.2666 1.06458 6.2666H30.9313C31.2513 6.2666 31.4646 6.47993 31.4646 6.79993C31.4646 7.11993 31.2513 7.33327 30.9313 7.33327Z" fill="#CAC6B9"/>
<path d="M4.26771 5.20046C4.56226 5.20046 4.80104 4.96167 4.80104 4.66712C4.80104 4.37257 4.56226 4.13379 4.26771 4.13379C3.97316 4.13379 3.73438 4.37257 3.73438 4.66712C3.73438 4.96167 3.97316 5.20046 4.26771 5.20046Z" fill="#CAC6B9"/>
<path d="M6.39271 5.19948C6.68726 5.19948 6.92604 4.9607 6.92604 4.66615C6.92604 4.37159 6.68726 4.13281 6.39271 4.13281C6.09816 4.13281 5.85938 4.37159 5.85938 4.66615C5.85938 4.9607 6.09816 5.19948 6.39271 5.19948Z" fill="#CAC6B9"/>
<path d="M8.53333 5.20046C8.82789 5.20046 9.06667 4.96167 9.06667 4.66712C9.06667 4.37257 8.82789 4.13379 8.53333 4.13379C8.23878 4.13379 8 4.37257 8 4.66712C8 4.96167 8.23878 5.20046 8.53333 5.20046Z" fill="#CAC6B9"/>
<path fill-rule="evenodd" clip-rule="evenodd" d="M4.44332 10.1796C4.63858 9.98439 4.95517 9.98439 5.15043 10.1796L8.17065 13.1999L5.15043 16.2201C4.95517 16.4154 4.63858 16.4154 4.44332 16.2201C4.24806 16.0248 4.24806 15.7082 4.44332 15.513L6.75644 13.1999L4.44332 10.8868C4.24806 10.6915 4.24806 10.3749 4.44332 10.1796ZM9.63021 15.8665C9.63021 15.5904 9.85407 15.3665 10.1302 15.3665H14.3969C14.673 15.3665 14.8969 15.5904 14.8969 15.8665C14.8969 16.1427 14.673 16.3665 14.3969 16.3665H10.1302C9.85407 16.3665 9.63021 16.1427 9.63021 15.8665Z" fill="#CAC6B9"/>
</svg>
